<svg id="Capa_1" enable-background="new 0 0 512 512" height="512" viewBox="0 0 512 512" width="512" xmlns="http://www.w3.org/2000/svg" xmlns:xlink="http://www.w3.org/1999/xlink"><linearGradient id="SVGID_1_" gradientUnits="userSpaceOnUse" x1="74.981" x2="437.02" y1="437.019" y2="74.98"><stop offset="0" stop-color="#364aff"/><stop offset="1" stop-color="#fc54ff"/></linearGradient><radialGradient id="SVGID_2_" cx="252.154" cy="200.505" gradientUnits="userSpaceOnUse" r="313.937"><stop offset="0" stop-color="#8d00db" stop-opacity=".66"/><stop offset=".0401" stop-color="#9606de" stop-opacity=".634"/><stop offset=".2345" stop-color="#ba22ea" stop-opacity=".505"/><stop offset=".4294" stop-color="#d738f3" stop-opacity=".377"/><stop offset=".6228" stop-color="#ec48fa" stop-opacity=".249"/><stop offset=".8138" stop-color="#f851fe" stop-opacity=".123"/><stop offset="1" stop-color="#fc54ff" stop-opacity="0"/></radialGradient><linearGradient id="lg1"><stop offset="0" stop-color="#b31de7"/><stop offset="1" stop-color="#fda0ff"/></linearGradient><linearGradient id="SVGID_3_" gradientUnits="userSpaceOnUse" x1="247.068" x2="437.895" xlink:href="#lg1" y1="488.5" y2="297.672"/><linearGradient id="SVGID_4_" gradientUnits="userSpaceOnUse" x1="216.052" x2="444.093" xlink:href="#lg1" y1="482.295" y2="254.254"/><linearGradient id="lg2"><stop offset="0" stop-color="#fda0ff"/><stop offset="1" stop-color="#fff"/></linearGradient><linearGradient id="SVGID_5_" gradientUnits="userSpaceOnUse" x1="-128.534" x2="342.813" xlink:href="#lg2" y1="668.129" y2="196.782"/><linearGradient id="SVGID_6_" gradientUnits="userSpaceOnUse" x1="129.865" x2="326.439" xlink:href="#lg2" y1="220.754" y2="26.286"/><linearGradient id="SVGID_7_" gradientUnits="userSpaceOnUse" x1="137.371" x2="307.508" xlink:href="#lg2" y1="263.37" y2="93.233"/><linearGradient id="lg3"><stop offset="0" stop-color="#fc54ff"/><stop offset=".4062" stop-color="#fd9bff"/><stop offset="1" stop-color="#fff"/></linearGradient><linearGradient id="SVGID_8_" gradientUnits="userSpaceOnUse" x1="102.134" x2="156.716" xlink:href="#lg3" y1="342.854" y2="288.271"/><linearGradient id="SVGID_9_" gradientUnits="userSpaceOnUse" x1="162.9" x2="395.872" xlink:href="#lg3" y1="249.264" y2="16.291"/><linearGradient id="SVGID_10_" gradientUnits="userSpaceOnUse" x1="162.577" x2="218.089" xlink:href="#lg3" y1="344.195" y2="288.683"/><linearGradient id="SVGID_11_" gradientUnits="userSpaceOnUse" x1="223.068" x2="279.357" xlink:href="#lg3" y1="344.888" y2="288.599"/><linearGradient id="SVGID_12_" gradientUnits="userSpaceOnUse" x1="283.607" x2="340.519" xlink:href="#lg3" y1="344.935" y2="288.024"/><linearGradient id="SVGID_13_" gradientUnits="userSpaceOnUse" x1="175.489" x2="397.175" xlink:href="#lg3" y1="293.452" y2="71.765"/><linearGradient id="SVGID_14_" gradientUnits="userSpaceOnUse" x1="171.357" x2="372.357" xlink:href="#lg3" y1="302.388" y2="101.388"/><g><circle cx="256" cy="256" fill="url(#SVGID_1_)" r="256"/><circle cx="256" cy="256" fill="url(#SVGID_2_)" r="256"/><path d="m424.429 279.75c-10.208.16-20.416.305-30.623.436-.545 30.328-1.48 60.656-2.805 90.984 10-.318 20-.672 30-1.061 8.276-.328 15.394-7.333 15.84-15.61 1.063-20 1.894-40 2.494-60 .252-8.276-6.447-14.876-14.906-14.749z" fill="url(#SVGID_3_)"/><path d="m406.7 355.552c.885-20.153 1.578-40.305 2.078-60.458.211-8.341-6.514-15.01-14.973-14.908-15.312.196-30.623.36-45.935.49-15.493 15.412-30.961 30.885-46.305 46.349 15.033 15.239 29.877 30.375 44.435 45.339 15-.318 30-.716 45-1.193 8.276-.269 15.327-7.278 15.7-15.619z" fill="url(#SVGID_4_)"/><path d="m87.571 279.75c-8.459-.125-15.158 6.472-14.905 14.75.6 20 1.431 40 2.494 60 .447 8.276 7.564 15.282 15.84 15.61 85 3.306 170 4.057 255 2.254.884-30.563 1.507-61.125 1.87-91.688-86.766.741-173.532.432-260.299-.926z" fill="url(#SVGID_5_)"/><path d="m256 60.181c-28.851.01-52.842 24.445-53.247 54.026-.226 20.457-.384 40.915-.474 61.372 10.233-.032 20.465-.056 30.698-.07.039-20.492.107-40.984.203-61.477.073-12.729 10.297-23.102 22.82-23.102s22.748 10.373 22.82 23.102c-.139-29.647-.354-53.822-22.82-53.851z" fill="url(#SVGID_6_)"/><path d="m256 60.181c12.365.002 22.647 24.196 22.82 53.852.097 20.492.164 40.985.203 61.477 10.233.014 20.465.037 30.698.07-.091-20.457-.249-40.915-.474-61.372-.405-29.583-24.396-54.018-53.247-54.027z" fill="url(#SVGID_7_)"/><path d="m104.116 325.323c.292 8.341 7.338 15.304 15.688 15.52 8.352.217 14.911-6.443 14.688-14.846-.225-8.403-7.203-15.326-15.623-15.482-8.419-.156-15.046 6.466-14.753 14.808z" fill="url(#SVGID_8_)"/><path d="m202.465 144.893c-8.444.049-15.362 6.961-15.432 15.42-.195 24.856-.26 49.712-.198 74.568.022 8.461 6.933 15.345 15.413 15.368 10.238.026 20.477.045 30.716.057-.054-35.178-.023-70.357.093-105.535-10.198.024-20.395.065-30.592.122z" fill="url(#SVGID_9_)"/><path d="m164.87 326.52c.177 8.435 7.115 15.396 15.466 15.516 8.352.121 15.02-6.671 14.911-15.142-.11-8.471-7.01-15.391-15.43-15.479-8.42-.083-15.124 6.667-14.947 15.105z" fill="url(#SVGID_10_)"/><path d="m225.623 327.119c.063 8.485 6.892 15.404 15.244 15.429 8.351.023 15.127-6.864 15.133-15.354.005-8.492-6.817-15.373-15.237-15.391-8.419-.016-15.202 6.83-15.14 15.316z" fill="url(#SVGID_11_)"/><path d="m286.377 327.119c-.051 8.488 6.67 15.33 15.022 15.258 8.351-.074 15.235-7.016 15.355-15.482.12-8.467-6.624-15.271-15.043-15.221-8.42.051-15.282 6.957-15.334 15.445z" fill="url(#SVGID_12_)"/><path d="m256.378 144.744c-7.774 0-15.548.009-23.322.027-8.444.022-15.331 6.926-15.371 15.407-.108 24.916-.145 49.831-.11 74.746.013 8.481 6.909 15.37 15.388 15.381 25.596.028 51.193.009 76.789-.057 8.48-.025 15.39-6.909 15.413-15.368.011-4.567.019-9.133.021-13.7-22.92-25.385-45.989-50.951-68.808-76.436z" fill="url(#SVGID_13_)"/><path d="m325.186 221.181c.012-20.289-.061-40.579-.219-60.868-.069-8.459-6.988-15.369-15.432-15.42-17.719-.099-35.438-.148-53.157-.149-.025 39.759 30.125 72.454 68.808 76.437z" fill="url(#SVGID_14_)"/></g></svg>