<?xml version="1.0" encoding="iso-8859-1"?>
<!-- Generator: Adobe Illustrator 21.0.0, SVG Export Plug-In . SVG Version: 6.00 Build 0)  -->
<svg xmlns="http://www.w3.org/2000/svg" xmlns:xlink="http://www.w3.org/1999/xlink" version="1.1" id="Capa_1" x="0px" y="0px" viewBox="0 0 512 512" style="enable-background:new 0 0 512 512;" xml:space="preserve" width="512" height="512">
<g>
	<g>
		<g>
			<g>
				<g>
					<g>
						<g>
							<g>
								<g>
									<g>
										<g>
											<g>
												<circle style="fill:#FF0335;" cx="256" cy="256" r="256"/>
											</g>
										</g>
									</g>
								</g>
							</g>
						</g>
					</g>
				</g>
			</g>
		</g>
	</g>
	<path style="fill:#990011;" d="M511.699,268.337L326.755,83.393c-17.604-19.084-42.806-31.06-70.755-31.06   c-53.086,0-96.275,43.188-96.275,96.275v56.023h-33.641v163.501c0,20.427,8.901,38.767,23.027,51.379l92.049,92.049   C246.072,511.842,251.017,512,256,512C393.248,512,505.261,403.991,511.699,268.337z"/>
	<g>
		<path style="fill:#FFFFFF;" d="M352.275,217.333h-30v-68.725c0-36.544-29.731-66.275-66.275-66.275s-66.275,29.731-66.275,66.275    v68.725h-30v-68.725c0-53.087,43.189-96.275,96.275-96.275s96.275,43.188,96.275,96.275V217.333z"/>
	</g>
	<g>
		<path style="fill:#FFF5CB;" d="M352.28,148.61v68.72h-30v-68.72c0-36.55-29.74-66.28-66.28-66.28v-30    C309.09,52.33,352.28,95.52,352.28,148.61z"/>
	</g>
	<g>
		<path style="fill:#FFE670;" d="M317.05,437h-122.1c-38.034,0-68.867-30.833-68.867-68.867V204.632h259.834v163.501    C385.917,406.167,355.084,437,317.05,437z"/>
	</g>
	<g>
		<path style="fill:#FFCF00;" d="M385.92,204.63v163.5c0,38.04-30.84,68.87-68.87,68.87H256V204.63H385.92z"/>
	</g>
	<g>
		<path style="fill:#9A4C00;" d="M292.373,295.838c0-20.088-16.285-36.373-36.373-36.373s-36.373,16.285-36.373,36.373    c0,14.779,8.82,27.491,21.479,33.182l-10.248,53.147h50.285l-10.249-53.147C283.553,323.328,292.373,310.617,292.373,295.838z"/>
	</g>
	<g>
		<path style="fill:#703700;" d="M270.899,329.016l10.243,53.145H256V259.469c20.087,0,36.367,16.28,36.367,36.367    C292.367,310.614,283.554,323.33,270.899,329.016z"/>
	</g>
</g>















</svg>
